<svg width="36" height="36" viewBox="0 0 36 36" fill="none" xmlns="http://www.w3.org/2000/svg">
<path d="M2.51208 19.34C2.51208 17.1232 2.51359 15.5488 2.62963 14.3246C2.74415 13.119 2.96166 12.3831 3.31378 11.8084C3.76235 11.076 4.37819 10.4607 5.11057 10.0116C5.68521 9.65944 6.42111 9.44193 7.62667 9.3274C8.85081 9.21086 10.4251 9.20985 12.6418 9.20985H16.6603C19.6707 9.20985 21.4705 9.21638 22.769 9.48413C23.4481 9.62428 24.1127 9.18725 24.2528 8.50809C24.393 7.82893 23.956 7.16433 23.2768 7.02418C21.6644 6.69164 19.5491 6.69766 16.6603 6.69766H12.6418C12.0842 6.69766 11.5568 6.69766 11.057 6.69967C11.1695 5.91301 11.3493 5.35793 11.6236 4.91035C12.036 4.23772 12.6091 3.66405 13.2817 3.25213C14.4898 2.51169 16.4318 2.51169 20.3016 2.51169H24.069C26.5168 2.51169 28.2854 2.51169 29.5126 2.71764C30.1967 2.83218 30.8442 2.37103 30.9588 1.68685C31.0733 1.00267 30.6122 0.355153 29.928 0.24062C28.4949 4.79066e-08 26.7343 0 24.069 0H20.3016C15.9606 0 13.7815 9.58132e-08 11.9697 1.11017C10.9605 1.72854 10.1006 2.58854 9.48222 3.59774C8.97036 4.43313 8.67299 5.39008 8.51979 6.74991C8.11894 6.76849 7.7417 6.79311 7.38857 6.82676C5.99916 6.95888 4.83329 7.23516 3.79751 7.86962C2.72758 8.52567 1.82743 9.42535 1.1719 10.4953C0.536976 11.5312 0.261205 12.6966 0.129095 14.0865C-0.00100442 15.4574 2.324e-07 17.1719 2.324e-07 19.34C2.324e-07 20.0337 0.562092 20.5958 1.25579 20.5958C1.94949 20.5958 2.51158 20.0337 2.51158 19.34H2.51208Z" fill="#FFBB05"/>
<path d="M35.7594 6.07125C35.6449 5.38706 34.9974 4.92592 34.3132 5.04045C33.6291 5.15498 33.1674 5.8025 33.2825 6.48668C33.4884 7.71389 33.4884 9.48262 33.4884 11.9305V13.1864C33.4884 15.9422 33.4884 17.3251 33.1062 18.2484C32.5928 19.4882 31.6273 20.4537 30.3876 20.9671C30.0923 21.0891 29.7527 21.1745 29.3026 21.2328C29.3026 21.053 29.3026 20.8686 29.3026 20.6792V19.3395C29.3026 16.4505 29.3091 14.3352 28.9761 12.7227C28.836 12.0435 28.1719 11.6065 27.4923 11.7467C26.8131 11.8868 26.3761 12.5509 26.5163 13.2306C26.784 14.5296 26.7905 16.3295 26.7905 19.3395V20.6792C26.7905 22.2571 26.79 23.3773 26.7298 24.2584C26.6705 25.1284 26.5575 25.6735 26.3761 26.1105C25.8241 27.4437 24.7647 28.5031 23.431 29.0557C22.8715 29.2873 22.1506 29.4028 20.824 29.4455C20.1233 29.4681 19.515 29.4862 19.0152 29.547C18.4958 29.6103 17.9854 29.7303 17.5002 30.0172C17.023 30.2995 16.6779 30.6737 16.377 31.0881C16.0912 31.482 15.7958 31.9828 15.4598 32.551L15.0253 33.2849C14.9494 33.4135 14.8163 33.4888 14.6506 33.4888C14.4848 33.4888 14.3517 33.4135 14.2758 33.2849L13.8413 32.551C13.5053 31.9828 13.2104 31.482 12.9241 31.0881C12.6232 30.6737 12.2786 30.2995 11.8009 30.0172C11.3157 29.7303 10.8053 29.6103 10.2859 29.547C9.78612 29.4862 9.17782 29.4676 8.47709 29.4455C7.15047 29.4028 6.42965 29.2878 5.87007 29.0557C4.53692 28.5031 3.47754 27.4437 2.92499 26.1105C2.65976 25.4695 1.92488 25.1656 1.28442 25.4308C0.643467 25.6961 0.339566 26.431 0.604789 27.0715C1.41201 29.0205 2.96015 30.5687 4.90914 31.376C5.90875 31.7899 7.01083 31.911 8.39722 31.9557C9.14316 31.9798 9.61986 31.9959 9.98203 32.0401C10.3246 32.0818 10.4527 32.1375 10.5225 32.1787C10.5999 32.2244 10.7064 32.3078 10.8922 32.564C11.0932 32.8403 11.3202 33.2216 11.6804 33.8299L12.1149 34.5638C13.2481 36.4787 16.054 36.4787 17.1873 34.5638L17.6218 33.8299C17.9814 33.2216 18.209 32.8403 18.4094 32.564C18.5952 32.3083 18.7017 32.2244 18.7791 32.1787C18.8484 32.1375 18.977 32.0818 19.3196 32.0401C19.6818 31.9959 20.1585 31.9793 20.9044 31.9557C22.2908 31.9115 23.3929 31.7899 24.3925 31.376C26.3415 30.5687 27.8896 29.0205 28.6968 27.0715C29.0258 26.2773 29.1675 25.4268 29.2358 24.4292C29.2504 24.2182 29.2614 23.9961 29.27 23.7631C30.028 23.6892 30.7066 23.5526 31.3486 23.2868C33.2081 22.5168 34.6563 21.0685 35.4264 19.2089C36 17.8244 36 16.2742 36 13.1859V11.93C36 9.26511 36 7.50442 35.7599 6.07075L35.7594 6.07125Z" fill="#FFBB05"/>
<path d="M8.80661 18.0003C7.88184 18.0003 7.13239 18.7497 7.13239 19.6745C7.13239 20.5993 7.88184 21.3488 8.80661 21.3488H8.82168C9.74644 21.3488 10.4959 20.5993 10.4959 19.6745C10.4959 18.7497 9.74644 18.0003 8.82168 18.0003H8.80661Z" fill="#FFBB05"/>
<path d="M20.4965 18.0003C19.5717 18.0003 18.8223 18.7497 18.8223 19.6745C18.8223 20.5993 19.5717 21.3488 20.4965 21.3488H20.5116C21.4363 21.3488 22.1858 20.5993 22.1858 19.6745C22.1858 18.7497 21.4363 18.0003 20.5116 18.0003H20.4965Z" fill="#FFBB05"/>
<path d="M14.6511 18.0003C13.7263 18.0003 12.9768 18.7497 12.9768 19.6745C12.9768 20.5993 13.7263 21.3488 14.6511 21.3488H14.6661C15.5909 21.3488 16.3403 20.5993 16.3403 19.6745C16.3403 18.7497 15.5909 18.0003 14.6661 18.0003H14.6511Z" fill="#FFBB05"/>
</svg>
