<svg width="36" height="38" viewBox="0 0 36 38" fill="none" xmlns="http://www.w3.org/2000/svg">
<path fill-rule="evenodd" clip-rule="evenodd" d="M18.1796 8.5467C23.5181 8.5467 28.231 11.6957 32.3317 17.795L32.6381 18.2579L33.059 18.9037L32.3317 20.0125C28.231 26.1117 23.5181 29.2607 18.1796 29.2607C12.841 29.2607 8.12813 26.1117 4.02738 20.0125L3.72107 19.5495L3.30008 18.9037L3.72107 18.2579C7.89274 11.855 12.7077 8.54618 18.1796 8.54618V8.5467ZM18.1796 11.1365C14.1578 11.1365 10.3357 13.6166 6.73036 18.9047C10.3357 24.1929 14.1573 26.673 18.1796 26.673C22.2018 26.673 25.8112 24.3296 29.3199 19.3513L29.6288 18.9053L29.3194 18.4587C25.8052 13.4773 22.0867 11.137 18.1796 11.137V11.1365ZM18.1796 15.0203C20.6446 15.0203 22.6435 16.7595 22.6435 18.9042C22.6435 21.049 20.6451 22.7881 18.1796 22.7881C15.714 22.7881 13.7157 21.049 13.7157 18.9042C13.7157 16.7595 15.714 15.0203 18.1796 15.0203Z" fill="#4B47DF"/>
<path d="M4.32665 11.3976C3.87699 11.3976 3.43186 11.1938 3.1346 10.8046L0.317945 7.11738C-0.19358 6.44753 -0.0753809 5.4822 0.582509 4.96138C1.2404 4.44055 2.18851 4.5609 2.70003 5.23075L5.51669 8.91798C6.02821 9.58783 5.91001 10.5532 5.25212 11.074C4.97699 11.2921 4.65056 11.3976 4.32665 11.3976Z" fill="#4B47DF"/>
<path d="M31.6733 11.3976C31.3494 11.3976 31.0235 11.2921 30.7479 11.074C30.09 10.5532 29.9718 9.58783 30.4833 8.91798L33.3 5.23075C33.8115 4.5609 34.7596 4.44055 35.4175 4.96138C36.0754 5.4822 36.1936 6.44753 35.6821 7.11738L32.8654 10.8046C32.5681 11.1938 32.123 11.3976 31.6733 11.3976Z" fill="#4B47DF"/>
<path d="M18.0568 6.73739C17.2234 6.73739 16.5479 6.04962 16.5479 5.20105V1.53635C16.5479 0.687771 17.2234 0 18.0568 0C18.8903 0 19.5658 0.687771 19.5658 1.53635V5.20105C19.5658 6.04962 18.8903 6.73739 18.0568 6.73739Z" fill="#4B47DF"/>
<path d="M4.32665 26.6024C3.87699 26.6024 3.43186 26.8062 3.1346 27.1954L0.317945 30.8826C-0.19358 31.5525 -0.0753809 32.5178 0.582509 33.0386C1.2404 33.5594 2.18851 33.4391 2.70003 32.7692L5.51669 29.082C6.02821 28.4122 5.91001 27.4468 5.25212 26.926C4.97699 26.7078 4.65056 26.6024 4.32665 26.6024Z" fill="#4B47DF"/>
<path d="M31.6733 26.6024C31.3494 26.6024 31.0235 26.7078 30.7479 26.926C30.09 27.4468 29.9718 28.4122 30.4833 29.082L33.3 32.7692C33.8115 33.4391 34.7596 33.5594 35.4175 33.0386C36.0754 32.5178 36.1936 31.5525 35.6821 30.8826L32.8654 27.1954C32.5681 26.8062 32.123 26.6024 31.6733 26.6024Z" fill="#4B47DF"/>
<path d="M18.0568 31.2626C17.2234 31.2626 16.5479 31.9504 16.5479 32.799V36.4637C16.5479 37.3122 17.2234 38 18.0568 38C18.8903 38 19.5658 37.3122 19.5658 36.4637V32.799C19.5658 31.9504 18.8903 31.2626 18.0568 31.2626Z" fill="#4B47DF"/>
</svg>
