<svg width="32" height="33" viewBox="0 0 32 33" fill="none" xmlns="http://www.w3.org/2000/svg">
<path d="M14.1543 14.9799C13.9276 13.932 13.2483 12.9741 12.2408 12.2828C11.0265 11.4497 9.35598 11.0093 7.40961 11.0093C5.46323 11.0093 3.96266 11.5704 2.94395 12.677C0.776705 15.0314 1.12604 19.4125 1.29372 21.5178C1.31221 21.7474 1.32708 21.9364 1.33835 22.1028C1.36945 22.5738 1.57049 25.0408 2.45893 27.3694C2.96198 28.6877 3.59665 29.7315 4.3458 30.4729C5.25769 31.3748 6.34897 31.8318 7.58946 31.8318C9.65077 31.8318 11.1297 31.1497 11.9848 29.8038C12.5911 28.8495 12.6636 27.8843 12.6686 27.8052C12.6636 26.6515 12.0997 26.0955 11.3862 25.3912C10.6384 24.6534 9.79051 23.8175 9.79051 22.2316C9.79051 21.2863 10.125 20.4197 10.7583 19.7258C11.4236 18.9966 12.1809 18.6996 12.4094 18.6223C13.786 17.9794 14.4874 16.5165 14.1552 14.9799H14.1543Z" fill="#02A4A0"/>
<path d="M28.7341 3.33449C29.0072 3.33449 29.2299 3.11162 29.2299 2.83721C29.2299 2.5628 29.0077 2.33993 28.7341 2.33993C28.4604 2.33993 28.2382 2.5628 28.2382 2.83721C28.2382 3.11162 28.4604 3.33449 28.7341 3.33449Z" fill="#02A4A0"/>
<path d="M18.5275 4.05555C19.2965 4.05555 19.9217 3.42807 19.9217 2.65729C19.9217 1.8865 19.2961 1.25857 18.5275 1.25857C17.759 1.25857 17.1329 1.88605 17.1329 2.65729C17.1329 3.42852 17.7586 4.05555 18.5275 4.05555Z" fill="#02A4A0"/>
<path d="M25.7879 2.7034C26.1354 2.7034 26.4185 2.41995 26.4185 2.07095C26.4185 1.72195 26.1359 1.4385 25.7879 1.4385C25.4399 1.4385 25.1577 1.7224 25.1577 2.07095C25.1577 2.4195 25.4404 2.7034 25.7879 2.7034Z" fill="#02A4A0"/>
<path d="M14.8665 8.26164C14.8665 7.4904 14.2408 6.86293 13.4718 6.86293C12.7029 6.86293 12.0777 7.4904 12.0777 8.26164C12.0777 9.03288 12.7033 9.6599 13.4718 9.6599C14.2404 9.6599 14.8665 9.03243 14.8665 8.26164Z" fill="#02A4A0"/>
<path d="M10.0492 8.08307C10.1939 7.93796 10.2737 7.74537 10.2737 7.54058C10.2737 7.11744 9.93069 6.77296 9.50833 6.77296C9.08597 6.77296 8.74295 7.11744 8.74295 7.54058C8.74295 7.96373 9.08642 8.3082 9.50833 8.3082C9.71253 8.3082 9.90455 8.22819 10.0492 8.08307Z" fill="#02A4A0"/>
<path d="M23.2564 1.93578C23.2564 1.51264 22.913 1.16816 22.4911 1.16816C22.0691 1.16816 21.7257 1.51264 21.7257 1.93578C21.7257 2.35892 22.0691 2.7034 22.4911 2.7034C22.913 2.7034 23.2564 2.35892 23.2564 1.93578Z" fill="#02A4A0"/>
<path d="M29.54 21.7642C30.4284 19.4355 30.6295 16.9686 30.6606 16.4975C30.6723 16.3203 30.689 16.1133 30.7048 15.913C30.8729 13.8072 31.2222 9.42618 29.0545 7.07178C28.0363 5.96511 26.5335 5.40409 24.5889 5.40409C22.6443 5.40409 20.9716 5.84441 19.7577 6.67758C18.7502 7.3688 18.0709 8.32674 17.8442 9.3751C17.512 10.9117 18.2138 12.3742 19.59 13.0175C19.8185 13.0943 20.5758 13.3913 21.2411 14.1205C21.874 14.8144 22.2089 15.6811 22.2089 16.6264C22.2089 18.2122 21.3615 19.0481 20.6132 19.7859C19.8992 20.4902 19.3349 21.0463 19.3303 22.2004C19.3376 22.3293 19.4142 23.3302 20.0763 24.3008C20.9481 25.5783 22.4059 26.2261 24.409 26.2261C25.6491 26.2261 26.7403 25.7691 27.6522 24.8672C28.4014 24.1263 29.0365 23.082 29.5391 21.7637L29.54 21.7642Z" fill="#02A4A0"/>
<path d="M6.8421 7.67575C6.8421 7.32721 6.55948 7.0433 6.21149 7.0433C5.86351 7.0433 5.58088 7.32721 5.58088 7.67575C5.58088 8.0243 5.86351 8.3082 6.21149 8.3082C6.55948 8.3082 6.8421 8.02476 6.8421 7.67575Z" fill="#02A4A0"/>
<path d="M3.76117 8.44202C3.76117 8.16806 3.53895 7.94474 3.26534 7.94474C2.99173 7.94474 2.76951 8.16761 2.76951 8.44202C2.76951 8.71643 2.99173 8.9393 3.26534 8.9393C3.53895 8.9393 3.76117 8.71643 3.76117 8.44202Z" fill="#02A4A0"/>
<path d="M29.9114 6.27885C28.6633 4.92308 26.8729 4.23548 24.5898 4.23548C22.3067 4.23548 20.5091 4.74632 19.1005 5.7133C17.8464 6.57405 16.9963 7.78651 16.7065 9.12736C16.2526 11.2277 17.2294 13.2236 19.1365 14.0938C19.1568 14.1033 19.1784 14.1115 19.2001 14.1183C19.2186 14.1241 21.0446 14.7448 21.0446 16.6259C21.0446 17.7217 20.4942 18.2647 19.7973 18.9518C19.0328 19.7059 18.1665 20.5603 18.1665 22.2135C18.1665 22.2212 18.1665 22.2284 18.1665 22.2366C18.1687 22.2899 18.2278 23.5594 19.0324 24.8256C20.3815 26.9485 22.7016 27.3943 24.4104 27.3943C26.977 27.3943 29.0316 25.8247 30.3514 22.855C31.5026 20.2655 31.7695 17.3931 31.824 16.5744C31.8353 16.4071 31.8506 16.2118 31.8673 16.0043C32.048 13.7335 32.4249 9.00847 29.9119 6.27794L29.9114 6.27885ZM20.0772 24.3012C19.4151 23.3306 19.3385 22.3297 19.3312 22.2009C19.3358 21.0467 19.9001 20.4907 20.6141 19.7863C21.3619 19.049 22.2098 18.2127 22.2098 16.6268C22.2098 15.6815 21.8753 14.8149 21.242 14.121C20.5767 13.3918 19.8194 13.0948 19.5909 13.0179C18.2147 12.3751 17.5129 10.9121 17.8451 9.37555C18.0714 8.32764 18.7511 7.3697 19.7586 6.67803C20.9729 5.84486 22.6434 5.40454 24.5898 5.40454C26.5362 5.40454 28.0367 5.96556 29.0554 7.07224C31.2231 9.42663 30.8733 13.8077 30.7057 15.9134C30.6899 16.1137 30.6732 16.3208 30.6615 16.498C30.6304 16.969 30.4289 19.436 29.5409 21.7646C29.0379 23.0829 28.4032 24.1267 27.654 24.8681C26.7422 25.77 25.6513 26.227 24.4108 26.227C22.4077 26.227 20.9499 25.5792 20.0782 24.3017L20.0772 24.3012Z" fill="#02A4A0"/>
<path d="M18.5275 5.22416C19.7392 5.22416 20.7782 4.35799 21.0288 3.19842C21.3926 3.62066 21.9272 3.87246 22.4911 3.87246C23.2019 3.87246 23.8456 3.48142 24.1809 2.87157C24.4802 3.47418 25.1005 3.87246 25.7879 3.87246C26.3018 3.87246 26.7917 3.64552 27.1298 3.26397C27.3182 3.98051 27.9687 4.50355 28.7341 4.50355C29.65 4.50355 30.3951 3.75628 30.3951 2.83766C30.3951 1.91905 29.65 1.17177 28.7341 1.17177C28.2774 1.17177 27.8506 1.35758 27.5404 1.68126C27.3642 0.867981 26.6493 0.27034 25.7879 0.27034C25.1555 0.27034 24.5736 0.610299 24.2522 1.14239C23.9452 0.456142 23.2619 0 22.4911 0C21.668 0 20.9526 0.51672 20.679 1.26852C20.2116 0.543392 19.3998 0.0899626 18.528 0.0899626C17.1167 0.0899626 15.9681 1.24185 15.9681 2.65729C15.9681 4.07273 17.1167 5.22461 18.528 5.22461L18.5275 5.22416ZM18.5275 1.25857C19.2965 1.25857 19.9217 1.88605 19.9217 2.65729C19.9217 3.42852 19.2961 4.05555 18.5275 4.05555C17.759 4.05555 17.1329 3.42807 17.1329 2.65729C17.1329 1.8865 17.7586 1.25857 18.5275 1.25857ZM21.7261 1.93578C21.7261 1.51264 22.0696 1.16816 22.4915 1.16816C22.9134 1.16816 23.2569 1.51264 23.2569 1.93578C23.2569 2.35892 22.9134 2.7034 22.4915 2.7034C22.0696 2.7034 21.7261 2.35892 21.7261 1.93578ZM25.7879 1.43895C26.1354 1.43895 26.4185 1.72285 26.4185 2.0714C26.4185 2.41995 26.1359 2.70385 25.7879 2.70385C25.4399 2.70385 25.1577 2.4204 25.1577 2.0714C25.1577 1.7224 25.4404 1.43895 25.7879 1.43895ZM28.7341 2.33993C29.0072 2.33993 29.2299 2.5628 29.2299 2.83721C29.2299 3.11162 29.0077 3.33449 28.7341 3.33449C28.4604 3.33449 28.2382 3.11162 28.2382 2.83721C28.2382 2.5628 28.4604 2.33993 28.7341 2.33993Z" fill="#02A4A0"/>
<path d="M12.8994 11.3181C11.4903 10.3511 9.59217 9.84028 7.41006 9.84028C5.22794 9.84028 3.33656 10.5279 2.08841 11.8837C-0.425015 14.6142 -0.0481816 19.3397 0.133023 21.6109L0.134826 21.634C0.150603 21.8324 0.165478 22.0196 0.176296 22.1801C0.230837 22.9988 0.497686 25.8713 1.64892 28.4607C2.96919 31.4304 5.02329 33 7.58991 33C9.29873 33 11.6188 32.5543 12.9679 30.4313C13.7711 29.1673 13.8316 27.8956 13.8338 27.8423C13.8338 27.8346 13.8338 27.8269 13.8338 27.8192C13.8338 26.166 12.9674 25.3111 12.2025 24.5571C11.5056 23.8699 10.9553 23.327 10.9553 22.2312C10.9553 20.3496 12.7249 19.7479 12.7998 19.7235C12.8214 19.7163 12.843 19.7081 12.8633 19.6991C14.7709 18.8289 15.7473 16.833 15.2934 14.7326C15.0035 13.3913 14.1534 12.1789 12.8994 11.3186V11.3181ZM10.7578 19.7253C10.125 20.4193 9.79006 21.2859 9.79006 22.2312C9.79006 23.817 10.6379 24.6529 11.3857 25.3907C12.0997 26.0946 12.6636 26.6511 12.6681 27.8048C12.6632 27.8839 12.5911 28.8491 11.9843 29.8034C11.1293 31.1492 9.65077 31.8314 7.58901 31.8314C6.34852 31.8314 5.25724 31.3743 4.34535 30.4725C3.59619 29.7315 2.96108 28.6872 2.45848 27.369C1.57004 25.0403 1.36945 22.5734 1.3379 22.1023C1.32663 21.936 1.31175 21.747 1.29327 21.5173C1.12514 19.412 0.775803 15.031 2.9435 12.6766C3.96176 11.5699 5.46459 11.0089 7.40915 11.0089C9.35372 11.0089 11.0265 11.4492 12.2404 12.2824C13.2478 12.9736 13.9271 13.9315 14.1538 14.9795C14.4861 16.5161 13.7842 17.9785 12.4081 18.6218C12.1795 18.6991 11.4223 18.9961 10.7569 19.7253H10.7578Z" fill="#02A4A0"/>
<path d="M13.4718 5.69432C12.6001 5.69432 11.7883 6.14729 11.3208 6.87287C11.0472 6.12107 10.3319 5.60435 9.50878 5.60435C8.73799 5.60435 8.05464 6.0605 7.74767 6.74674C7.42628 6.21465 6.84436 5.87469 6.21194 5.87469C5.35054 5.87469 4.63609 6.47233 4.45985 7.28561C4.14972 6.96193 3.72286 6.77613 3.26624 6.77613C2.3503 6.77613 1.6052 7.52341 1.6052 8.44202C1.6052 9.36063 2.3503 10.1079 3.26624 10.1079C4.03163 10.1079 4.68162 9.58531 4.87049 8.86832C5.20856 9.24987 5.69808 9.47682 6.21239 9.47682C6.8998 9.47682 7.52004 9.07854 7.81934 8.47592C8.15516 9.08577 8.79839 9.47682 9.50924 9.47682C10.0727 9.47682 10.6077 9.22501 10.9715 8.80277C11.2221 9.96279 12.2611 10.829 13.4727 10.829C14.8841 10.829 16.0326 9.67754 16.0326 8.26164C16.0326 6.8462 14.8841 5.69432 13.4727 5.69432H13.4718ZM12.0777 8.26164C12.0777 7.4904 12.7033 6.86293 13.4718 6.86293C14.2404 6.86293 14.8665 7.4904 14.8665 8.26164C14.8665 9.03288 14.2408 9.6599 13.4718 9.6599C12.7029 9.6599 12.0777 9.03243 12.0777 8.26164ZM8.74295 7.54058C8.74295 7.11744 9.08642 6.77296 9.50833 6.77296C9.93024 6.77296 10.2737 7.11744 10.2737 7.54058C10.2737 7.74537 10.1939 7.93796 10.0492 8.08307C9.90455 8.22819 9.71253 8.3082 9.50833 8.3082C9.08642 8.3082 8.74295 7.96373 8.74295 7.54058ZM5.58088 7.67575C5.58088 7.32721 5.86351 7.0433 6.21149 7.0433C6.55948 7.0433 6.8421 7.32721 6.8421 7.67575C6.8421 8.0243 6.55948 8.3082 6.21149 8.3082C5.86351 8.3082 5.58088 8.02476 5.58088 7.67575ZM2.76996 8.44202C2.76996 8.16806 2.99218 7.94474 3.26579 7.94474C3.5394 7.94474 3.76162 8.16761 3.76162 8.44202C3.76162 8.71643 3.5394 8.9393 3.26579 8.9393C2.99218 8.9393 2.76996 8.71643 2.76996 8.44202Z" fill="#02A4A0"/>
</svg>
