<svg preserveAspectRatio="none" width="100%" height="100%" overflow="visible" style="display: block;" viewBox="0 0 30 30" fill="none" xmlns="http://www.w3.org/2000/svg">
<g id="account_child_invert_24dp_1F1F1F_FILL0_wght400_GRAD0_opsz24 1">
<path id="Vector" d="M15 1C16.1538 1 17.1346 1.40833 17.9423 2.225C18.75 3.04167 19.1538 4.03333 19.1538 5.2C19.1538 6.36667 18.75 7.35833 17.9423 8.175C17.1346 8.99167 16.1538 9.4 15 9.4C13.8462 9.4 12.8654 8.99167 12.0577 8.175C11.25 7.35833 10.8462 6.36667 10.8462 5.2C10.8462 4.03333 11.25 3.04167 12.0577 2.225C12.8654 1.40833 13.8462 1 15 1ZM15 10.8C16.0846 10.8 17.1577 10.9283 18.2192 11.185C19.2808 11.4417 20.2385 11.8033 21.0923 12.27C21.9692 12.7133 22.6731 13.2383 23.2038 13.845C23.7346 14.4517 24 15.1167 24 15.84V23.96C24 24.3567 23.9077 24.7475 23.7231 25.1325C23.5385 25.5175 23.2846 25.8733 22.9615 26.2C22.6385 26.5267 22.2635 26.83 21.8365 27.11C21.4096 27.39 20.9308 27.6467 20.4 27.88V24.73C20.4 23.8433 19.7942 23.12 18.5827 22.56C17.3712 22 16.1769 21.72 15 21.72C13.8462 21.72 12.7327 21.9592 11.6596 22.4375C10.5865 22.9158 9.92308 23.54 9.66923 24.31C10.5462 24.66 11.4462 24.905 12.3692 25.045C13.2923 25.185 14.2385 25.2667 15.2077 25.29H16.3846V28.93C16.2231 28.9767 16.0558 29 15.8827 29H15.3462C14.5154 29 13.5635 28.9067 12.4904 28.72C11.4173 28.5333 10.3962 28.2417 9.42692 27.845C8.45769 27.4483 7.64423 26.9292 6.98654 26.2875C6.32885 25.6458 6 24.87 6 23.96V15.84C6 15.1167 6.26538 14.4517 6.79615 13.845C7.32692 13.2383 8.01923 12.7133 8.87308 12.27C9.75 11.8033 10.7192 11.4417 11.7808 11.185C12.8423 10.9283 13.9154 10.8 15 10.8ZM15 19.2C15.7615 19.2 16.4135 18.9258 16.9558 18.3775C17.4981 17.8292 17.7692 17.17 17.7692 16.4C17.7692 15.63 17.4981 14.9708 16.9558 14.4225C16.4135 13.8742 15.7615 13.6 15 13.6C14.2385 13.6 13.5865 13.8742 13.0442 14.4225C12.5019 14.9708 12.2308 15.63 12.2308 16.4C12.2308 17.17 12.5019 17.8292 13.0442 18.3775C13.5865 18.9258 14.2385 19.2 15 19.2Z" fill="#4B47DF"/>
</g>
</svg>
