<svg preserveAspectRatio="none" width="100%" height="100%" overflow="visible" style="display: block;" viewBox="0 0 32 31.3333" fill="none" xmlns="http://www.w3.org/2000/svg">
<g id="shield-check-line 1">
<path id="Vector" d="M16 1L26.9559 3.43464C27.566 3.57021 28 4.11129 28 4.73623V18.0519C28 20.7267 26.6632 23.2245 24.4376 24.7083L16 30.3333L7.5624 24.7083C5.33681 23.2245 4 20.7267 4 18.0519V4.73623C4 4.11129 4.43404 3.57021 5.04409 3.43464L16 1ZM16 3.73172L6.66667 5.80579V18.0519C6.66667 19.8351 7.55787 21.5003 9.0416 22.4895L16 27.1284L22.9584 22.4895C24.4421 21.5003 25.3333 19.8351 25.3333 18.0519V5.80579L16 3.73172ZM21.9365 10.6291L23.8221 12.5147L15.3368 21L9.67999 15.3432L11.5656 13.4575L15.3359 17.2279L21.9365 10.6291Z" fill="var(--fill-0, #4B47DF)"/>
</g>
</svg>
