<svg preserveAspectRatio="none" width="100%" height="100%" overflow="visible" style="display: block;" viewBox="0 0 26 28" fill="none" xmlns="http://www.w3.org/2000/svg">
<g id="user-heart-line 1">
<path id="Vector" d="M18.8835 18.9783L19.0981 19.1954L19.3147 18.9783C20.3865 17.9006 22.1243 17.9006 23.1961 18.9783C24.268 20.0559 24.268 21.8031 23.1961 22.8808L19.0991 27L15.002 22.8808C13.9302 21.8031 13.9302 20.0559 15.002 18.9783C16.0739 17.9006 17.8116 17.9006 18.8835 18.9783ZM11.7585 16.9436V19.3965C7.71641 19.3965 4.43963 22.6911 4.43963 26.7551H2C2 21.4386 6.20573 17.1098 11.4545 16.9483L11.7585 16.9436ZM11.7585 1C15.8022 1 19.0774 4.29297 19.0774 8.35859C19.0774 12.3319 15.9494 15.5671 12.033 15.7122L11.7585 15.7172C7.71483 15.7172 4.43963 12.4242 4.43963 8.35859C4.43963 4.38537 7.56765 1.15008 11.4841 1.00508L11.7585 1ZM11.7585 3.45286C9.0622 3.45286 6.87926 5.64765 6.87926 8.35859C6.87926 11.0695 9.0622 13.2643 11.7585 13.2643C14.4548 13.2643 16.6378 11.0695 16.6378 8.35859C16.6378 5.64765 14.4548 3.45286 11.7585 3.45286Z" fill="#4B47DF"/>
</g>
</svg>
