<svg preserveAspectRatio="none" width="100%" height="100%" overflow="visible" style="display: block;" viewBox="0 0 32 30" fill="none" xmlns="http://www.w3.org/2000/svg">
<g id="tree-line 1">
<path id="Vector" d="M8 9C8 4.58172 11.5817 1 16 1C20.4183 1 24 4.58172 24 9C24 9.34952 23.9775 9.69427 23.9339 10.0328C26.36 11.4055 28 14.01 28 17C28 21.4183 24.4183 25 20 25H17.3333V29H14.6667V25H11.3333C7.28324 25 4 21.7168 4 17.6667C4 14.7151 5.74283 12.1729 8.25464 11.0094C8.08847 10.3673 8 9.69385 8 9ZM9.34619 13.4425C7.76235 14.1891 6.66667 15.8011 6.66667 17.6667C6.66667 20.244 8.756 22.3333 11.3333 22.3333H20C22.9455 22.3333 25.3333 19.9455 25.3333 17C25.3333 14.7408 23.9281 12.8065 21.9392 12.0298L20.8172 11.5916C21.0543 10.7378 21.3333 9.89577 21.3333 9C21.3333 6.05448 18.9455 3.66667 16 3.66667C13.0545 3.66667 10.6667 6.05448 10.6667 9C10.6667 10.7438 11.5021 12.292 12.8003 13.2673L11.1985 15.3993C10.4769 14.8572 9.84955 14.1951 9.34619 13.4425Z" fill="var(--fill-0, #4B47DF)"/>
</g>
</svg>
