<svg preserveAspectRatio="none" width="100%" height="100%" overflow="visible" style="display: block;" viewBox="0 0 32 30.6469" fill="none" xmlns="http://www.w3.org/2000/svg">
<g id="poker-hearts-line 2">
<path id="Vector" d="M16 10.7474L18.1803 7.65127C19.0295 6.44549 20.4239 5.66667 22 5.66667C24.5773 5.66667 26.6667 7.756 26.6667 10.3333C26.6667 14.1717 24.0543 17.8287 20.8573 20.7811C19.3169 22.2036 17.7649 23.3471 16.5935 24.1361C16.3815 24.2789 16.1828 24.4095 15.9999 24.5275C15.8169 24.4095 15.6183 24.2789 15.4063 24.1361C14.2348 23.3472 12.6829 22.2037 11.1425 20.7811C7.94568 17.8288 5.33333 14.1717 5.33333 10.3333C5.33333 7.756 7.42267 5.66667 10 5.66667C11.5761 5.66667 12.9706 6.44549 13.8197 7.65127L16 10.7474ZM14.0743 4.23501C12.909 3.45493 11.5076 3 10 3C5.94991 3 2.66667 6.28324 2.66667 10.3333C2.66667 20.3333 15.9999 27.6469 15.9999 27.6469C15.9999 27.6469 29.3333 20.3333 29.3333 10.3333C29.3333 6.28324 26.0501 3 22 3C20.4924 3 19.0911 3.45493 17.9257 4.23501C17.174 4.73827 16.5204 5.37684 16 6.11589C15.4796 5.37684 14.826 4.73827 14.0743 4.23501Z" fill="var(--fill-0, #4B47DF)"/>
</g>
</svg>
