<svg preserveAspectRatio="none" width="100%" height="100%" overflow="visible" style="display: block;" viewBox="0 0 28 26" fill="none" xmlns="http://www.w3.org/2000/svg">
<g id="playground_24dp_1F1F1F_FILL0_wght400_GRAD0_opsz24 1">
<path id="Vector" d="M1 24V21.6842H2.24091L3.275 6.48684C3.31439 5.8693 3.56061 5.35307 4.01364 4.93816C4.46667 4.52325 5.00833 4.31579 5.63864 4.31579H12.8773C13.5076 4.31579 14.0492 4.52325 14.5023 4.93816C14.9553 5.35307 15.2015 5.8693 15.2409 6.48684L16.3045 21.6842H21.0909V14.5632C20.0667 14.293 19.2197 13.7526 18.55 12.9421C17.8803 12.1316 17.5455 11.186 17.5455 10.1053C17.5455 9.44912 17.6735 8.8364 17.9295 8.26711C18.1856 7.69781 18.5402 7.20088 18.9932 6.77632C18.8947 6.56404 18.8258 6.35175 18.7864 6.13947C18.747 5.92719 18.7273 5.70526 18.7273 5.47368C18.7273 4.50877 19.072 3.6886 19.7614 3.01316C20.4508 2.33772 21.2879 2 22.2727 2C23.2576 2 24.0947 2.33772 24.7841 3.01316C25.4735 3.6886 25.8182 4.50877 25.8182 5.47368C25.8182 5.70526 25.7985 5.92719 25.7591 6.13947C25.7197 6.35175 25.6508 6.56404 25.5523 6.77632C26.0053 7.20088 26.3598 7.69781 26.6159 8.26711C26.872 8.8364 27 9.44912 27 10.1053C27 11.186 26.6652 12.1316 25.9955 12.9421C25.3258 13.7526 24.4788 14.293 23.4545 14.5632V21.6842H27V24H1ZM4.63409 21.6842H13.9114L12.8773 6.63158H11.9318V17.0526H12.8182V19.3684H5.72727V17.0526H6.61364V6.63158H5.66818L4.63409 21.6842ZM8.38636 17.0526H10.1591V6.63158H8.38636V17.0526ZM22.2727 12.4211C22.9227 12.4211 23.4792 12.1943 23.942 11.7408C24.4049 11.2873 24.6364 10.7421 24.6364 10.1053C24.6364 9.56491 24.5083 9.15 24.2523 8.86053C23.9962 8.57105 23.7303 8.29123 23.4545 8.02105V5.47368C23.4545 5.14561 23.3413 4.87061 23.1148 4.64868C22.8883 4.42675 22.6076 4.31579 22.2727 4.31579C21.9379 4.31579 21.6572 4.42675 21.4307 4.64868C21.2042 4.87061 21.0909 5.14561 21.0909 5.47368V8.02105C20.8152 8.29123 20.5492 8.57105 20.2932 8.86053C20.0371 9.15 19.9091 9.56491 19.9091 10.1053C19.9091 10.7421 20.1405 11.2873 20.6034 11.7408C21.0663 12.1943 21.6227 12.4211 22.2727 12.4211Z" fill="#4B47DF"/>
</g>
</svg>
