<svg preserveAspectRatio="none" width="100%" height="100%" overflow="visible" style="display: block;" viewBox="0 0 56 58" fill="none" xmlns="http://www.w3.org/2000/svg">
<g id="child_friendly_32dp_1F1F1F_FILL0_wght400_GRAD0_opsz40 1">
<rect width="56" height="58" rx="28" fill="#FF5500" fill-opacity="0.15"/>
<path id="Vector" d="M21.8887 44.9721C21.426 44.5093 21.1946 43.9446 21.1946 43.2779C21.1946 42.6113 21.426 42.0464 21.8887 41.5833C22.3518 41.1203 22.9167 40.8888 23.5833 40.8888C24.25 40.8888 24.8149 41.1203 25.2779 41.5833C25.7407 42.0464 25.9721 42.6113 25.9721 43.2779C25.9721 43.9446 25.7407 44.5093 25.2779 44.9721C24.8149 45.4351 24.25 45.6667 23.5833 45.6667C22.9167 45.6667 22.3518 45.4351 21.8887 44.9721ZM39.75 44.9721C39.2869 44.5093 39.0554 43.9446 39.0554 43.2779C39.0554 42.6113 39.2869 42.0464 39.75 41.5833C40.2131 41.1203 40.7779 40.8888 41.4446 40.8888C42.1112 40.8888 42.676 41.1203 43.1388 41.5833C43.6018 42.0464 43.8333 42.6113 43.8333 43.2779C43.8333 43.9446 43.6018 44.5093 43.1388 44.9721C42.676 45.4351 42.1112 45.6667 41.4446 45.6667C40.7779 45.6667 40.2131 45.4351 39.75 44.9721ZM31.2221 21.9167L24.7779 14.1667C25.7963 13.6481 26.8887 13.2592 28.0554 13C29.2221 12.7408 30.3703 12.6112 31.5 12.6112C32.9167 12.6112 34.2847 12.7987 35.6042 13.1737C36.9236 13.5487 38.1389 14.1204 39.25 14.8887L31.2221 21.9167ZM29.3333 39C27.0647 39 25.1457 38.2153 23.5762 36.6458C22.0068 35.0764 21.2221 33.1574 21.2221 30.8888V18.2221L20.1387 16.9721C19.4907 16.2221 18.9792 15.7244 18.6042 15.4792C18.2292 15.2339 17.8518 15.1112 17.4721 15.1112C16.676 15.1112 16.0557 15.4168 15.6112 16.0279C15.1668 16.639 14.9446 17.3149 14.9446 18.0554H12.1667C12.1667 16.4907 12.6829 15.1458 13.7154 14.0208C14.7476 12.8958 15.9999 12.3333 17.4721 12.3333C18.2871 12.3333 19.0464 12.5139 19.75 12.875C20.4536 13.2361 21.2685 13.9722 22.1946 15.0833L39.8888 36.3054C40.324 36.824 40.3958 37.4028 40.1042 38.0417C39.8125 38.6806 39.3149 39 38.6112 39H29.3333ZM29.3333 36.2221H36.1388L24 21.5833V30.8888C24 32.4074 24.5093 33.676 25.5279 34.6946C26.5463 35.7129 27.8147 36.2221 29.3333 36.2221Z" fill="#FF5500"/>
</g>
</svg>
