<svg preserveAspectRatio="none" width="100%" height="100%" overflow="visible" style="display: block;" viewBox="0 0 56 54" fill="none" xmlns="http://www.w3.org/2000/svg">
<g id="pediatrics_32dp_1F1F1F_FILL0_wght400_GRAD0_opsz40 1">
<rect width="56" height="54" rx="27" fill="#4B47DF" fill-opacity="0.15"/>
<path id="Vector" d="M21.3333 18.1112C20.9397 18.1112 20.6099 17.9776 20.3437 17.7104C20.0776 17.4432 19.9446 17.1122 19.9446 16.7175C19.9446 16.3225 20.0776 15.9931 20.3437 15.7292C20.6099 15.4653 20.9397 15.3333 21.3333 15.3333H26.6113V11.7221C26.6113 11.3287 26.7447 10.9989 27.0117 10.7325C27.2789 10.4664 27.61 10.3333 28.005 10.3333C28.3997 10.3333 28.729 10.4664 28.9929 10.7325C29.2568 10.9989 29.3888 11.3287 29.3888 11.7221V15.3333H34.6667C35.0603 15.3333 35.3901 15.4669 35.6563 15.7342C35.9224 16.0011 36.0554 16.3321 36.0554 16.7271C36.0554 17.1221 35.9224 17.4515 35.6563 17.7154C35.3901 17.9793 35.0603 18.1112 34.6667 18.1112H21.3333ZM22.4446 43.6667C21.6807 43.6667 21.0267 43.3947 20.4825 42.8508C19.9386 42.3067 19.6667 41.6526 19.6667 40.8888V25.0554C19.6667 23.6665 20.1528 22.486 21.125 21.5138C22.0972 20.5415 23.2778 20.0554 24.6667 20.0554H31.3333C32.7222 20.0554 33.9028 20.5415 34.875 21.5138C35.8472 22.486 36.3333 23.6665 36.3333 25.0554V40.8888C36.3333 41.6526 36.0614 42.3067 35.5175 42.8508C34.9733 43.3947 34.3193 43.6667 33.5554 43.6667H22.4446ZM22.4446 40.8888H33.5554V25.0554C33.5554 24.426 33.3425 23.8982 32.9167 23.4721C32.4908 23.0463 31.9631 22.8333 31.3333 22.8333H24.6667C24.0369 22.8333 23.5092 23.0463 23.0833 23.4721C22.6575 23.8982 22.4446 24.426 22.4446 25.0554V27H26.3333C26.7269 27 27.0568 27.1336 27.3229 27.4008C27.589 27.6678 27.7221 27.9988 27.7221 28.3938C27.7221 28.7888 27.589 29.1182 27.3229 29.3821C27.0568 29.646 26.7269 29.7779 26.3333 29.7779H22.4446V33.9446H26.3333C26.7269 33.9446 27.0568 34.0781 27.3229 34.345C27.589 34.6122 27.7221 34.9433 27.7221 35.3383C27.7221 35.7331 27.589 36.0624 27.3229 36.3262C27.0568 36.5901 26.7269 36.7221 26.3333 36.7221H22.4446V40.8888Z" fill="#4B47DF"/>
</g>
</svg>
