<svg preserveAspectRatio="none" width="100%" height="100%" overflow="visible" style="display: block;" viewBox="0 0 56 55" fill="none" xmlns="http://www.w3.org/2000/svg">
<g id="child_hat_32dp_1F1F1F_FILL0_wght400_GRAD0_opsz40 1">
<rect width="56" height="55" rx="27.5" fill="#02A4A0" fill-opacity="0.15"/>
<path id="Vector" d="M23.6321 37.2779C22.331 36.389 21.3703 35.2224 20.75 33.7779H35.25C34.6297 35.2224 33.669 36.389 32.3679 37.2779C31.0671 38.1668 29.6111 38.6113 28 38.6113C26.3889 38.6113 24.9329 38.1668 23.6321 37.2779ZM22.5488 30.0346C22.2015 29.6874 22.0279 29.2592 22.0279 28.75C22.0279 28.2408 22.2015 27.8126 22.5488 27.4654C22.896 27.1182 23.3242 26.9446 23.8333 26.9446C24.3425 26.9446 24.7707 27.1182 25.1179 27.4654C25.4651 27.8126 25.6387 28.2408 25.6387 28.75C25.6387 29.2592 25.4651 29.6874 25.1179 30.0346C24.7707 30.3818 24.3425 30.5554 23.8333 30.5554C23.3242 30.5554 22.896 30.3818 22.5488 30.0346ZM30.8821 30.0346C30.5349 29.6874 30.3612 29.2592 30.3612 28.75C30.3612 28.2408 30.5349 27.8126 30.8821 27.4654C31.2293 27.1182 31.6575 26.9446 32.1667 26.9446C32.6758 26.9446 33.104 27.1182 33.4513 27.4654C33.7985 27.8126 33.9721 28.2408 33.9721 28.75C33.9721 29.2592 33.7985 29.6874 33.4513 30.0346C33.104 30.3818 32.6758 30.5554 32.1667 30.5554C31.6575 30.5554 31.2293 30.3818 30.8821 30.0346ZM28 45C25.9167 45 23.9653 44.6042 22.1458 43.8125C20.3264 43.0208 18.7431 41.9514 17.3958 40.6042C16.0486 39.2569 14.9792 37.6736 14.1875 35.8542C13.3958 34.0347 13 32.0833 13 30C13 29.1667 13.0649 28.3472 13.1946 27.5417C13.324 26.7361 13.5231 25.9583 13.7917 25.2083L16.5417 25.6804C16.2731 26.3565 16.074 27.0533 15.9446 27.7708C15.8149 28.4883 15.75 29.2314 15.75 30C15.75 33.3981 16.9421 36.2846 19.3262 38.6596C21.7107 41.0346 24.6019 42.2221 28 42.2221C31.3981 42.2221 34.2846 41.0346 36.6596 38.6596C39.0346 36.2846 40.2221 33.3981 40.2221 30C40.2221 29.4631 40.1851 28.9422 40.1113 28.4375C40.0371 27.9328 39.9399 27.4258 39.8196 26.9167C37.5696 26.7222 35.4815 26.1018 33.5554 25.0554C31.6296 24.0093 29.9768 22.6436 28.5971 20.9583L31.0417 19.5554C32.0417 20.676 33.1782 21.6065 34.4513 22.3471C35.7246 23.0879 37.1113 23.6111 38.6113 23.9167C37.9351 22.7222 37.081 21.6782 36.0487 20.7846C35.0162 19.8913 33.8565 19.1853 32.5696 18.6667L35.4583 16.9721C37.7269 18.2776 39.551 20.0763 40.9304 22.3679C42.3101 24.6596 43 27.2036 43 30C43 32.0833 42.6042 34.0347 41.8125 35.8542C41.0208 37.6736 39.9514 39.2569 38.6042 40.6042C37.2569 41.9514 35.6736 43.0208 33.8542 43.8125C32.0347 44.6042 30.0833 45 28 45ZM15.8054 23.5696L34.0417 16.4446C33.0417 15.5001 31.9213 14.771 30.6804 14.2571C29.4399 13.7432 28.1251 13.4862 26.7363 13.4862C23.8751 13.4862 21.4006 14.4515 19.3125 16.3821C17.2244 18.3126 16.0554 20.7085 15.8054 23.5696ZM13.4446 27.4029C13.3057 26.8843 13.1968 26.3611 13.1179 25.8333C13.0393 25.3056 13 24.7639 13 24.2083C13 21.5508 13.7083 19.1526 15.125 17.0138C16.5417 14.8749 18.3704 13.2499 20.6113 12.1388C20.5371 12.0276 20.4792 11.9096 20.4375 11.7846C20.3958 11.6596 20.375 11.5276 20.375 11.3888C20.375 10.9907 20.5069 10.6597 20.7708 10.3958C21.0347 10.1319 21.3657 10 21.7637 10C22.1157 10 22.4167 10.1157 22.6667 10.3471C22.9167 10.5788 23.0694 10.8612 23.125 11.1946C23.6992 11.0371 24.2849 10.9167 24.8821 10.8333C25.4793 10.75 26.0974 10.7083 26.7363 10.7083C28.6899 10.7083 30.544 11.1157 32.2987 11.9304C34.0532 12.7454 35.5786 13.889 36.875 15.3612L41.9583 13.3612L42.9304 15.9583L13.4446 27.4029Z" fill="#02A4A0"/>
</g>
</svg>
