<svg preserveAspectRatio="none" width="100%" height="100%" overflow="visible" style="display: block;" viewBox="0 0 56 56" fill="none" xmlns="http://www.w3.org/2000/svg">
<g id="toys_fan_32dp_1F1F1F_FILL0_wght400_GRAD0_opsz40 1">
<rect width="56" height="56" rx="28" fill="#FFBB05" fill-opacity="0.15"/>
<path id="Vector" d="M28 28C28 25.4722 28.8958 23.3125 30.6875 21.5208C32.4792 19.7292 34.6389 18.8333 37.1667 18.8333C39.6944 18.8333 41.8542 19.7292 43.6458 21.5208C45.4375 23.3125 46.3333 25.4722 46.3333 28H28ZM12.3542 34.4792C10.5625 32.6875 9.66667 30.5278 9.66667 28H28C28 30.5278 27.1042 32.6875 25.3125 34.4792C23.5208 36.2708 21.3611 37.1667 18.8333 37.1667C16.3056 37.1667 14.1458 36.2708 12.3542 34.4792ZM28 28C25.4722 28 23.3125 27.1042 21.5208 25.3125C19.7292 23.5208 18.8333 21.3611 18.8333 18.8333C18.8333 16.3056 19.7292 14.1458 21.5208 12.3542C23.3125 10.5625 25.4722 9.66667 28 9.66667V28ZM28 46.3333V28C30.5278 28 32.6875 28.8958 34.4792 30.6875C36.2708 32.4792 37.1667 34.6389 37.1667 37.1667C37.1667 39.6944 36.2708 41.8542 34.4792 43.6458C32.6875 45.4375 30.5278 46.3333 28 46.3333Z" fill="#FFBB05"/>
</g>
</svg>
