<svg width="37" height="27" viewBox="0 0 37 27" fill="none" xmlns="http://www.w3.org/2000/svg">
<path d="M8.83333 20.5554C10.2606 20.5554 11.6497 20.7199 13.0008 21.0488C14.3522 21.3774 15.6853 21.8704 17 22.5279V5.19458C15.7869 4.41681 14.4803 3.81958 13.08 3.40292C11.6797 2.98625 10.2642 2.77792 8.83333 2.77792C7.79639 2.77792 6.77556 2.8982 5.77083 3.13875C4.76611 3.37958 3.76847 3.69444 2.77792 4.08333V21.6387C3.67597 21.2685 4.65042 20.9954 5.70125 20.8196C6.75236 20.6435 7.79639 20.5554 8.83333 20.5554ZM19.7779 22.5279C21.1112 21.8704 22.4283 21.3774 23.7292 21.0488C25.03 20.7199 26.3981 20.5554 27.8333 20.5554C28.8703 20.5554 29.9235 20.6388 30.9929 20.8054C32.0624 20.9721 33.0276 21.2036 33.8888 21.5V4.08333C32.9538 3.63889 31.9717 3.31014 30.9425 3.09708C29.9133 2.88431 28.8769 2.77792 27.8333 2.77792C26.3981 2.77792 24.9999 2.98625 23.6388 3.40292C22.2776 3.81958 20.9907 4.41681 19.7779 5.19458V22.5279ZM18.3887 26.6667C16.9999 25.6111 15.4907 24.7963 13.8613 24.2221C12.2315 23.6482 10.5556 23.3612 8.83333 23.3612C7.76778 23.3612 6.72125 23.4954 5.69375 23.7638C4.66653 24.0324 3.6575 24.3796 2.66667 24.8054C2.04444 25.111 1.44444 25.0786 0.866667 24.7083C0.288889 24.3381 0 23.8057 0 23.1112V3.55542C0 3.17597 0.0902778 2.82417 0.270833 2.5C0.451389 2.17583 0.722222 1.92583 1.08333 1.75C2.28694 1.1575 3.54056 0.71764 4.84417 0.430417C6.14778 0.143473 7.4775 0 8.83333 0C10.5369 0 12.1967 0.226806 13.8125 0.680417C15.4283 1.13431 16.9538 1.82417 18.3887 2.75C19.8054 1.82417 21.3124 1.13431 22.9096 0.680417C24.5068 0.226806 26.1481 0 27.8333 0C29.1828 0 30.5063 0.143473 31.8038 0.430417C33.1013 0.71764 34.3518 1.1575 35.5554 1.75C35.9165 1.92583 36.1921 2.17583 36.3821 2.5C36.5718 2.82417 36.6667 3.17597 36.6667 3.55542V23.1112C36.6667 23.8407 36.3681 24.3957 35.7708 24.7763C35.1736 25.1568 34.574 25.1665 33.9721 24.8054C32.9999 24.361 32.0001 24.0092 30.9729 23.75C29.9454 23.4908 28.8989 23.3612 27.8333 23.3612C26.1111 23.3612 24.4538 23.6529 22.8612 24.2363C21.2685 24.8196 19.7776 25.6297 18.3887 26.6667Z" fill="#02A4A0"/>
</svg>
