<svg width="34" height="27" viewBox="0 0 34 27" fill="none" xmlns="http://www.w3.org/2000/svg">
<path d="M22.2779 16.0554C21.5001 15.2776 21.1113 14.3332 21.1113 13.2221C21.1113 12.111 21.5001 11.1665 22.2779 10.3888C23.0557 9.61097 24.0001 9.22208 25.1113 9.22208C26.2224 9.22208 27.1668 9.61097 27.9446 10.3888C28.7224 11.1665 29.1113 12.111 29.1113 13.2221C29.1113 14.3332 28.7224 15.2776 27.9446 16.0554C27.1668 16.8332 26.2224 17.2221 25.1113 17.2221C24.0001 17.2221 23.0557 16.8332 22.2779 16.0554ZM16.8888 26.1388V23.9442C16.8888 23.2406 17.0485 22.6225 17.3679 22.09C17.6874 21.5578 18.1388 21.1574 18.7221 20.8888C19.7407 20.3979 20.7801 20.0344 21.8404 19.7983C22.9004 19.5622 23.9907 19.4442 25.1113 19.4442C26.2315 19.4442 27.3218 19.5576 28.3821 19.7846C29.4421 20.0115 30.4814 20.3796 31.5 20.8888C32.0833 21.1388 32.5347 21.5346 32.8542 22.0763C33.1736 22.6179 33.3333 23.2406 33.3333 23.9442V26.1388H16.8888ZM8.76375 10.9583C7.55097 9.74528 6.94458 8.22208 6.94458 6.38875C6.94458 4.55542 7.55097 3.03222 8.76375 1.81917C9.97681 0.60639 11.5 0 13.3333 0C15.1667 0 16.6899 0.60639 17.9029 1.81917C19.1157 3.03222 19.7221 4.55542 19.7221 6.38875C19.7221 8.22208 19.1157 9.74528 17.9029 10.9583C16.6899 12.1711 15.1667 12.7775 13.3333 12.7775C11.5 12.7775 9.97681 12.1711 8.76375 10.9583ZM0 26.1388V21.9721C0 21.0276 0.236111 20.1596 0.708333 19.3679C1.18056 18.5763 1.87042 17.9721 2.77792 17.5554C4.57403 16.7221 6.34014 16.0925 8.07625 15.6667C9.81236 15.2406 11.5647 15.0275 13.3333 15.0275C14.25 15.0275 15.1018 15.0831 15.8888 15.1942C16.676 15.3053 17.5001 15.4535 18.3613 15.6388C17.9629 16.0368 17.5693 16.4303 17.1804 16.8192C16.7915 17.2081 16.3981 17.6017 16 18C15.5925 17.9167 15.1665 17.8633 14.7221 17.84C14.2776 17.8169 13.8147 17.8054 13.3333 17.8054C11.7408 17.8054 10.1876 17.9767 8.67375 18.3192C7.15986 18.6619 5.58347 19.2407 3.94458 20.0554C3.59264 20.2313 3.31014 20.4997 3.09708 20.8608C2.88431 21.2219 2.77792 21.5924 2.77792 21.9721V23.3608H14.1113V26.1388H0ZM15.9096 8.965C16.5996 8.27528 16.9446 7.41653 16.9446 6.38875C16.9446 5.36097 16.5996 4.50222 15.9096 3.8125C15.2199 3.1225 14.3611 2.7775 13.3333 2.7775C12.3056 2.7775 11.4468 3.1225 10.7571 3.8125C10.0671 4.50222 9.72208 5.36097 9.72208 6.38875C9.72208 7.41653 10.0671 8.27528 10.7571 8.965C11.4468 9.655 12.3056 10 13.3333 10C14.3611 10 15.2199 9.655 15.9096 8.965Z" fill="#FF5500"/>
</svg>
